<svg width="211" height="112" viewBox="0 0 211 112" fill="none" xmlns="http://www.w3.org/2000/svg">
<path d="M45.2199 2.92266H57.4552L46.6705 29.7897L40.679 14.1488L45.2199 2.92266ZM36.7688 23.9244L42.7603 39.6284L31.2188 68.4506L6.30682 2.92266H18.4159L31.4711 37.2318L36.7688 23.9244ZM115.911 11.3107C118.938 14.4011 121.398 17.9329 123.037 21.9693C124.803 26.0687 125.686 30.4835 125.686 34.9613C125.686 39.5022 124.803 43.917 123.037 48.0165C121.398 51.9898 118.938 55.5846 115.911 58.675C112.82 61.7653 109.225 64.1619 105.252 65.8648C101.09 67.5676 96.7378 68.4506 92.1969 68.4506C87.656 68.4506 83.3043 67.5676 79.1418 65.8648C75.1685 64.1619 71.5736 61.7653 68.5463 58.675C65.456 55.5846 63.0594 51.9898 61.3565 48.0165C59.5906 43.917 58.7077 39.5022 58.7077 34.9613C58.7077 30.4835 59.5906 26.0687 61.3565 21.9693C63.0594 17.9329 65.456 14.4011 68.5463 11.3107C71.5736 8.22039 75.1685 5.8238 79.1418 4.12096C83.3043 2.35505 87.656 1.47209 92.1969 1.47209C96.7378 1.47209 101.09 2.35505 105.252 4.12096C109.225 5.8238 112.82 8.22039 115.911 11.3107ZM92.1969 57.0983C104.432 57.0983 114.334 47.1966 114.334 34.9613C114.334 22.7892 104.432 12.8244 92.1969 12.8244C80.0247 12.8244 70.0599 22.7892 70.0599 34.9613C70.0599 47.1966 80.0247 57.0983 92.1969 57.0983ZM92.1969 26.9517C96.6748 26.9517 100.27 30.5466 100.27 34.9613C100.27 39.4392 96.6748 43.0341 92.1969 43.0341C87.7821 43.0341 84.1872 39.4392 84.1872 34.9613C84.1872 30.5466 87.7821 26.9517 92.1969 26.9517ZM134.537 67V2.92266H145.89V67H134.537ZM158.484 67V2.92266H169.962C180.368 2.92266 189.198 6.13914 195.379 12.2568C198.343 15.221 200.676 18.6897 202.19 22.663C203.64 26.4471 204.397 30.6096 204.397 34.9613C204.397 39.313 203.64 43.4755 202.19 47.2596C200.676 51.2329 198.343 54.7017 195.379 57.6659C189.198 63.7835 180.368 67 169.962 67H158.484ZM158.484 46.5659V55.6477H169.962C184.215 55.6477 193.045 47.7642 193.045 34.9613C193.045 22.1585 184.215 14.2749 169.962 14.2749H169.836V46.5659H158.484Z" fill="white"/>
<path d="M29.8566 101.788V85.9806H40.1267V87.6808H31.8325V92.9422H39.0468V94.6654H31.8325V100.088H40.1267V101.788H29.8566ZM47.2844 101.972C46.8402 101.972 46.3654 101.956 45.8599 101.926C45.3545 101.895 44.8567 101.857 44.3665 101.811C43.8764 101.78 43.4322 101.734 43.0339 101.673V100.157C43.4016 100.187 43.7538 100.218 44.0908 100.248C44.4431 100.279 44.7877 100.31 45.1247 100.34C45.4617 100.356 45.7987 100.371 46.1356 100.386C46.4726 100.386 46.8172 100.386 47.1695 100.386C47.966 100.386 48.5404 100.333 48.8927 100.225C49.2603 100.103 49.4977 99.9038 49.6049 99.6281C49.7275 99.3524 49.7887 98.9924 49.7887 98.5482C49.7887 98.0428 49.7428 97.6752 49.6509 97.4454C49.5743 97.2156 49.4288 97.0701 49.2143 97.0089C49.0152 96.9323 48.7089 96.871 48.2953 96.8251L45.2626 96.4804C44.5427 96.4038 43.9989 96.2507 43.6313 96.0209C43.2637 95.7758 43.011 95.4312 42.8731 94.987C42.7353 94.5428 42.6663 93.9838 42.6663 93.3098C42.6663 92.544 42.7736 91.9313 42.988 91.4718C43.2024 91.0123 43.5088 90.6676 43.907 90.4379C44.3053 90.2081 44.7877 90.0626 45.3545 90.0013C45.9212 89.9248 46.5569 89.8865 47.2614 89.8865C47.6597 89.8865 48.0809 89.9018 48.5251 89.9324C48.9693 89.9631 49.4058 90.0013 49.8347 90.0473C50.2636 90.0933 50.6312 90.1469 50.9375 90.2081V91.7245C50.5393 91.6632 50.1334 91.6173 49.7198 91.5867C49.3216 91.5407 48.908 91.5101 48.4791 91.4948C48.0656 91.4794 47.6444 91.4718 47.2155 91.4718C46.6334 91.4718 46.1356 91.5024 45.7221 91.5637C45.3085 91.6249 44.9945 91.7781 44.7801 92.0232C44.581 92.2683 44.4814 92.6742 44.4814 93.2409C44.4814 93.6851 44.512 94.0221 44.5733 94.2518C44.6499 94.4662 44.7954 94.6194 45.0098 94.7113C45.2243 94.7879 45.523 94.8492 45.9059 94.8951L49.0765 95.2398C49.7045 95.301 50.1946 95.4236 50.5469 95.6074C50.9145 95.7758 51.1749 96.0822 51.3281 96.5264C51.4966 96.9706 51.5808 97.6369 51.5808 98.5252C51.5808 99.2605 51.4889 99.8578 51.3051 100.317C51.1366 100.762 50.8686 101.106 50.501 101.351C50.1334 101.596 49.6815 101.757 49.1454 101.834C48.6093 101.926 47.989 101.972 47.2844 101.972ZM55.7196 101.788V91.6556H53.3532V90.0703H55.7196V86.6699H57.5806V90.0703H60.3836V91.6556H57.5806V101.788H55.7196ZM66.9638 101.972C66.106 101.972 65.4091 101.88 64.873 101.696C64.3522 101.512 63.954 101.236 63.6783 100.869C63.4026 100.501 63.2111 100.034 63.1039 99.4672C63.012 98.8852 62.9661 98.1959 62.9661 97.3994V90.0703H64.85V96.7561C64.85 97.5373 64.8807 98.1653 64.9419 98.6401C65.0032 99.1149 65.1334 99.4749 65.3325 99.72C65.547 99.9497 65.8456 100.103 66.2286 100.179C66.6115 100.256 67.1093 100.294 67.722 100.294C68.4878 100.294 69.0852 100.202 69.5141 100.019C69.9429 99.8195 70.2493 99.5438 70.4331 99.1915C70.6322 98.8239 70.7547 98.3874 70.8007 97.8819C70.862 97.3612 70.8926 96.7715 70.8926 96.1128V90.0703H72.7536V101.788H71.0764L71.0075 100.111H70.8466C70.6935 100.478 70.4637 100.8 70.1574 101.076C69.8664 101.351 69.4605 101.573 68.9397 101.742C68.4189 101.895 67.7603 101.972 66.9638 101.972ZM66.1137 88.1174V88.0025L68.4342 84.9008H70.4561V85.0157L67.4922 88.1174H66.1137ZM80.5568 101.972C79.7144 101.972 79.0098 101.88 78.4431 101.696C77.8917 101.512 77.4551 101.198 77.1335 100.754C76.8118 100.294 76.5821 99.674 76.4442 98.8929C76.3064 98.1117 76.2374 97.1314 76.2374 95.952C76.2374 94.7573 76.2987 93.7693 76.4212 92.9882C76.5591 92.1917 76.7888 91.5713 77.1105 91.1271C77.4322 90.683 77.8687 90.369 78.4201 90.1852C78.9715 89.986 79.6684 89.8865 80.5109 89.8865C81.1389 89.8865 81.6979 89.9401 82.1881 90.0473C82.6782 90.1392 83.0994 90.3077 83.4517 90.5528C83.8193 90.7978 84.1104 91.1348 84.3248 91.5637H84.4397V84.717H86.3237V101.788H84.6464L84.5545 100.111H84.4167C84.2023 100.647 83.8883 101.053 83.4747 101.328C83.0765 101.589 82.6246 101.757 82.1191 101.834C81.6137 101.926 81.0929 101.972 80.5568 101.972ZM81.292 100.317C82.0732 100.317 82.6935 100.21 83.153 99.9957C83.6126 99.7812 83.9342 99.4443 84.118 98.9848C84.2712 98.5559 84.3631 98.0887 84.3937 97.5832C84.4244 97.0778 84.4397 96.4804 84.4397 95.7912C84.4397 95.2244 84.4244 94.7113 84.3937 94.2518C84.3631 93.777 84.2788 93.3634 84.141 93.0111C83.9419 92.4904 83.6126 92.1227 83.153 91.9083C82.6935 91.6786 82.0579 91.5637 81.2461 91.5637C80.5568 91.5637 80.0054 91.6096 79.5918 91.7015C79.1783 91.7934 78.8643 91.9926 78.6499 92.2989C78.4354 92.5899 78.2899 93.0265 78.2133 93.6085C78.1367 94.1752 78.0984 94.9487 78.0984 95.929C78.0984 96.9093 78.1367 97.6905 78.2133 98.2725C78.2899 98.8546 78.4354 99.2911 78.6499 99.5821C78.8643 99.8731 79.1783 100.072 79.5918 100.179C80.0207 100.271 80.5875 100.317 81.292 100.317ZM90.2259 86.7618V84.717H92.2248V86.7618H90.2259ZM90.2718 101.788V90.0703H92.1558V101.788H90.2718ZM100.746 101.972C99.7815 101.972 98.9774 101.91 98.3341 101.788C97.7061 101.681 97.2083 101.497 96.8407 101.236C96.4731 100.976 96.1974 100.616 96.0135 100.157C95.8451 99.697 95.7378 99.1226 95.6919 98.4333C95.6459 97.7288 95.623 96.894 95.623 95.929C95.623 94.964 95.6459 94.1369 95.6919 93.4477C95.7378 92.7431 95.8451 92.161 96.0135 91.7015C96.1974 91.242 96.4731 90.8821 96.8407 90.6217C97.2083 90.3613 97.7061 90.1775 98.3341 90.0703C98.9774 89.9477 99.7815 89.8865 100.746 89.8865C101.727 89.8865 102.531 89.9477 103.159 90.0703C103.787 90.1775 104.285 90.3613 104.652 90.6217C105.035 90.8821 105.311 91.242 105.479 91.7015C105.663 92.161 105.778 92.7431 105.824 93.4477C105.87 94.1369 105.893 94.964 105.893 95.929C105.893 96.894 105.87 97.7288 105.824 98.4333C105.778 99.1226 105.663 99.697 105.479 100.157C105.311 100.616 105.035 100.976 104.652 101.236C104.285 101.497 103.787 101.681 103.159 101.788C102.531 101.91 101.727 101.972 100.746 101.972ZM100.746 100.386C101.574 100.386 102.209 100.333 102.653 100.225C103.098 100.118 103.412 99.9114 103.595 99.6051C103.795 99.2988 103.909 98.8546 103.94 98.2725C103.986 97.6752 104.009 96.894 104.009 95.929C104.009 94.964 103.986 94.1905 103.94 93.6085C103.909 93.0111 103.795 92.5593 103.595 92.2529C103.412 91.9466 103.098 91.7398 102.653 91.6326C102.209 91.5254 101.574 91.4718 100.746 91.4718C99.9347 91.4718 99.299 91.5254 98.8395 91.6326C98.3953 91.7398 98.0813 91.9466 97.8975 92.2529C97.7137 92.5593 97.5989 93.0111 97.5529 93.6085C97.507 94.1905 97.484 94.964 97.484 95.929C97.484 96.894 97.507 97.6752 97.5529 98.2725C97.5989 98.8546 97.7137 99.2988 97.8975 99.6051C98.0813 99.9114 98.3953 100.118 98.8395 100.225C99.299 100.333 99.9347 100.386 100.746 100.386ZM115.095 101.788V85.9806H120.103C121.405 85.9806 122.47 86.0419 123.297 86.1644C124.124 86.287 124.775 86.5091 125.25 86.8307C125.74 87.1524 126.1 87.6119 126.33 88.2093C126.559 88.8066 126.705 89.5648 126.766 90.4838C126.827 91.4029 126.858 92.5363 126.858 93.8842C126.858 95.2321 126.827 96.3656 126.766 97.2846C126.705 98.2036 126.559 98.9618 126.33 99.5591C126.1 100.157 125.74 100.616 125.25 100.938C124.775 101.259 124.124 101.481 123.297 101.604C122.47 101.726 121.405 101.788 120.103 101.788H115.095ZM117.071 100.088H119.782C120.747 100.088 121.543 100.065 122.171 100.019C122.799 99.9727 123.297 99.8578 123.665 99.674C124.032 99.4749 124.3 99.1609 124.469 98.732C124.637 98.2878 124.744 97.6752 124.79 96.894C124.852 96.1128 124.882 95.1096 124.882 93.8842C124.882 92.6588 124.852 91.6632 124.79 90.8974C124.744 90.1162 124.629 89.5035 124.446 89.0594C124.277 88.6152 124.009 88.3012 123.642 88.1174C123.274 87.9182 122.776 87.7957 122.148 87.7498C121.535 87.7038 120.747 87.6808 119.782 87.6808H117.071V100.088ZM130.568 86.7618V84.717H132.566V86.7618H130.568ZM130.614 101.788V90.0703H132.497V101.788H130.614ZM140.744 106.521C140.253 106.521 139.748 106.505 139.227 106.475C138.722 106.459 138.239 106.436 137.78 106.406C137.32 106.375 136.93 106.345 136.608 106.314V104.798C136.976 104.828 137.381 104.851 137.826 104.866C138.27 104.897 138.706 104.912 139.135 104.912C139.579 104.928 139.978 104.935 140.33 104.935C141.218 104.935 141.915 104.874 142.421 104.752C142.926 104.629 143.309 104.415 143.57 104.108C143.83 103.802 143.991 103.373 144.052 102.822C144.129 102.27 144.167 101.566 144.167 100.708V100.225H144.052C143.853 100.654 143.577 100.991 143.225 101.236C142.873 101.481 142.451 101.658 141.961 101.765C141.471 101.857 140.912 101.903 140.284 101.903C139.426 101.903 138.714 101.811 138.147 101.627C137.596 101.443 137.159 101.137 136.838 100.708C136.516 100.264 136.286 99.651 136.148 98.8699C136.026 98.0887 135.965 97.1084 135.965 95.929C135.965 94.7343 136.034 93.7463 136.171 92.9652C136.309 92.184 136.539 91.5713 136.861 91.1271C137.182 90.683 137.619 90.369 138.17 90.1852C138.737 89.986 139.449 89.8865 140.307 89.8865C140.828 89.8865 141.341 89.9324 141.846 90.0243C142.352 90.1009 142.804 90.2771 143.202 90.5528C143.615 90.8285 143.929 91.2267 144.144 91.7475H144.282L144.374 90.0703H146.051V100.271C146.051 101.405 145.99 102.37 145.867 103.166C145.76 103.963 145.53 104.606 145.178 105.096C144.826 105.586 144.297 105.946 143.592 106.176C142.888 106.406 141.938 106.521 140.744 106.521ZM141.019 100.271C141.785 100.271 142.39 100.172 142.834 99.9727C143.278 99.7583 143.6 99.4289 143.799 98.9848C143.968 98.6171 144.067 98.1806 144.098 97.6752C144.144 97.1697 144.167 96.58 144.167 95.906C144.167 95.2627 144.152 94.696 144.121 94.2059C144.09 93.7004 143.991 93.2715 143.822 92.9192C143.623 92.4291 143.294 92.0768 142.834 91.8624C142.375 91.6479 141.77 91.5407 141.019 91.5407C140.315 91.5407 139.748 91.5943 139.319 91.7015C138.905 91.7934 138.591 91.9849 138.377 92.2759C138.163 92.5669 138.017 93.0035 137.941 93.5855C137.864 94.1676 137.826 94.9411 137.826 95.906C137.826 96.871 137.864 97.6445 137.941 98.2266C138.017 98.8086 138.163 99.2451 138.377 99.5362C138.591 99.8272 138.905 100.026 139.319 100.134C139.748 100.225 140.315 100.271 141.019 100.271ZM149.953 86.7618V84.717H151.952V86.7618H149.953ZM149.999 101.788V90.0703H151.883V101.788H149.999ZM156.821 101.788V91.6556H154.454V90.0703H156.821V86.6699H158.682V90.0703H161.485V91.6556H158.682V101.788H156.821ZM166.99 101.972C166.133 101.972 165.413 101.872 164.831 101.673C164.264 101.474 163.835 101.129 163.544 100.639C163.268 100.149 163.13 99.4596 163.13 98.5712C163.13 97.6828 163.23 96.9859 163.429 96.4804C163.644 95.9597 164.011 95.592 164.532 95.3776C165.053 95.1632 165.78 95.0559 166.715 95.0559C166.868 95.0559 167.105 95.0636 167.427 95.0789C167.764 95.0789 168.147 95.0866 168.576 95.1019C169.004 95.1019 169.433 95.1096 169.862 95.1249C170.306 95.1249 170.712 95.1325 171.08 95.1479V94.4126C171.08 93.7234 171.034 93.1873 170.942 92.8044C170.865 92.4061 170.697 92.1151 170.437 91.9313C170.176 91.7322 169.809 91.6096 169.334 91.5637C168.874 91.5024 168.262 91.4718 167.496 91.4718C167.159 91.4718 166.761 91.4871 166.301 91.5177C165.842 91.533 165.39 91.5637 164.945 91.6096C164.517 91.6403 164.172 91.6786 163.912 91.7245V90.2081C164.494 90.1009 165.145 90.0243 165.865 89.9784C166.6 89.9171 167.358 89.8865 168.139 89.8865C168.966 89.8865 169.663 89.9401 170.23 90.0473C170.812 90.1392 171.279 90.2924 171.631 90.5068C171.999 90.7212 172.275 91.0046 172.458 91.3569C172.642 91.7092 172.765 92.1381 172.826 92.6435C172.903 93.149 172.941 93.7387 172.941 94.4126V101.788H171.264L171.195 100.134H171.057C170.812 100.67 170.46 101.076 170 101.351C169.556 101.612 169.066 101.78 168.53 101.857C167.994 101.933 167.48 101.972 166.99 101.972ZM167.68 100.432C168.124 100.432 168.537 100.409 168.92 100.363C169.303 100.302 169.64 100.195 169.931 100.042C170.222 99.8885 170.452 99.6587 170.62 99.3524C170.789 99.0307 170.904 98.6861 170.965 98.3185C171.042 97.9355 171.08 97.4913 171.08 96.9859V96.3885H167.174C166.577 96.3885 166.117 96.4345 165.796 96.5264C165.474 96.6183 165.252 96.8097 165.129 97.1008C165.022 97.3918 164.968 97.8283 164.968 98.4104C164.968 98.9771 165.037 99.406 165.175 99.697C165.313 99.988 165.573 100.187 165.956 100.294C166.355 100.386 166.929 100.432 167.68 100.432ZM176.923 101.788V84.717H178.807V101.788H176.923Z" fill="white"/>
</svg>
