<svg width="195" height="111" viewBox="0 0 195 111" fill="none" xmlns="http://www.w3.org/2000/svg">
<path d="M48.8617 2.42548H58.7096L50.0292 24.0502L45.2068 11.4612L48.8617 2.42548ZM42.0595 19.3293L46.8819 31.9691L37.5924 55.1675L17.5413 2.42548H27.2877L37.7955 30.0402L42.0595 19.3293ZM105.759 9.17687C108.196 11.6642 110.175 14.5069 111.495 17.7557C112.917 21.0552 113.627 24.6086 113.627 28.2127C113.627 31.8676 112.917 35.421 111.495 38.7205C110.175 41.9186 108.196 44.812 105.759 47.2994C103.272 49.7867 100.378 51.7157 97.1803 53.0863C93.83 54.4569 90.3274 55.1675 86.6725 55.1675C83.0176 55.1675 79.515 54.4569 76.1647 53.0863C72.9666 51.7157 70.0732 49.7867 67.6366 47.2994C65.1492 44.812 63.2203 41.9186 61.8497 38.7205C60.4283 35.421 59.7177 31.8676 59.7177 28.2127C59.7177 24.6086 60.4283 21.0552 61.8497 17.7557C63.2203 14.5069 65.1492 11.6642 67.6366 9.17687C70.0732 6.68951 72.9666 4.76054 76.1647 3.38996C79.515 1.96861 83.0176 1.25794 86.6725 1.25794C90.3274 1.25794 93.83 1.96861 97.1803 3.38996C100.378 4.76054 103.272 6.68951 105.759 9.17687ZM86.6725 46.0303C96.5204 46.0303 104.49 38.0606 104.49 28.2127C104.49 18.4156 96.5204 10.3952 86.6725 10.3952C76.8753 10.3952 68.8549 18.4156 68.8549 28.2127C68.8549 38.0606 76.8753 46.0303 86.6725 46.0303ZM86.6725 21.7659C90.2766 21.7659 93.17 24.6594 93.17 28.2127C93.17 31.8169 90.2766 34.7103 86.6725 34.7103C83.1191 34.7103 80.2257 31.8169 80.2257 28.2127C80.2257 24.6594 83.1191 21.7659 86.6725 21.7659ZM120.751 54V2.42548H129.889V54H120.751ZM140.025 54V2.42548H149.264C157.64 2.42548 164.747 5.01436 169.721 9.9383C172.107 12.3241 173.985 15.1161 175.204 18.3141C176.371 21.3598 176.98 24.7101 176.98 28.2127C176.98 31.7153 176.371 35.0657 175.204 38.1114C173.985 41.3094 172.107 44.1013 169.721 46.4872C164.747 51.4111 157.64 54 149.264 54H140.025ZM140.025 37.553V44.8628H149.264C160.736 44.8628 167.843 38.5175 167.843 28.2127C167.843 17.908 160.736 11.5627 149.264 11.5627H149.162V37.553H140.025Z" fill="white"/>
<path d="M2.92255 98V77.8928H15.9864V80.0555H5.43595V86.7482H14.6128V88.9401H5.43595V95.8373H15.9864V98H2.92255ZM25.0913 98.2338C24.5262 98.2338 23.9222 98.2143 23.2793 98.1754C22.6363 98.1364 22.0031 98.0877 21.3796 98.0292C20.7561 97.9903 20.1911 97.9318 19.6845 97.8539V95.925C20.1521 95.964 20.6003 96.0029 21.0289 96.0419C21.477 96.0809 21.9154 96.1198 22.3441 96.1588C22.7727 96.1783 23.2013 96.1978 23.63 96.2172C24.0586 96.2172 24.497 96.2172 24.9451 96.2172C25.9583 96.2172 26.6889 96.149 27.137 96.0127C27.6047 95.8568 27.9066 95.6035 28.043 95.2528C28.1989 94.9021 28.2768 94.4442 28.2768 93.8792C28.2768 93.2362 28.2184 92.7686 28.1015 92.4764C28.0041 92.1841 27.819 91.999 27.5462 91.9211C27.2929 91.8237 26.9032 91.7457 26.3772 91.6873L22.5194 91.2489C21.6037 91.1515 20.912 90.9566 20.4444 90.6644C19.9768 90.3527 19.6553 89.9143 19.48 89.3492C19.3046 88.7842 19.2169 88.0731 19.2169 87.2158C19.2169 86.2416 19.3533 85.4622 19.6261 84.8777C19.8989 84.2932 20.2885 83.8548 20.7951 83.5626C21.3017 83.2703 21.9154 83.0852 22.6363 83.0073C23.3572 82.9099 24.1658 82.8612 25.062 82.8612C25.5686 82.8612 26.1044 82.8807 26.6694 82.9196C27.2345 82.9586 27.7897 83.0073 28.3353 83.0658C28.8808 83.1242 29.3484 83.1924 29.7381 83.2703V85.1992C29.2315 85.1213 28.7152 85.0628 28.1892 85.0239C27.6826 84.9654 27.1565 84.9264 26.611 84.907C26.0849 84.8875 25.5491 84.8777 25.0036 84.8777C24.2632 84.8777 23.63 84.9167 23.1039 84.9946C22.5779 85.0726 22.1784 85.2674 21.9057 85.5792C21.6524 85.8909 21.5257 86.4072 21.5257 87.1281C21.5257 87.6931 21.5647 88.1218 21.6426 88.414C21.7401 88.6868 21.9252 88.8816 22.1979 88.9985C22.4707 89.096 22.8506 89.1739 23.3377 89.2323L27.3708 89.6707C28.1697 89.7487 28.7932 89.9045 29.2413 90.1383C29.7089 90.3527 30.0401 90.7423 30.2349 91.3074C30.4493 91.8724 30.5564 92.7199 30.5564 93.85C30.5564 94.7852 30.4395 95.5451 30.2057 96.1296C29.9914 96.6946 29.6504 97.133 29.1828 97.4447C28.7152 97.7565 28.1405 97.961 27.4585 98.0585C26.7766 98.1754 25.9875 98.2338 25.0913 98.2338ZM35.8211 98V85.1115H32.8109V83.095H35.8211V78.7696H38.1884V83.095H41.7539V85.1115H38.1884V98H35.8211ZM50.1241 98.2338C49.033 98.2338 48.1465 98.1169 47.4645 97.8831C46.8021 97.6493 46.2955 97.2986 45.9448 96.831C45.5941 96.3634 45.3506 95.7691 45.2142 95.0482C45.0973 94.3078 45.0388 93.4311 45.0388 92.4179V83.095H47.4353V91.5996C47.4353 92.5933 47.4743 93.3921 47.5522 93.9961C47.6302 94.6001 47.7958 95.058 48.049 95.3697C48.3218 95.662 48.7018 95.8568 49.1888 95.9542C49.6759 96.0516 50.3092 96.1003 51.0885 96.1003C52.0627 96.1003 52.8226 95.9834 53.3681 95.7496C53.9136 95.4963 54.3033 95.1456 54.5371 94.6975C54.7904 94.2299 54.9463 93.6746 55.0047 93.0317C55.0827 92.3692 55.1216 91.6191 55.1216 90.7813V83.095H57.4889V98H55.3554L55.2678 95.8665H55.0632C54.8683 96.3341 54.5761 96.7433 54.1864 97.094C53.8162 97.4447 53.2999 97.7272 52.6375 97.9415C51.975 98.1364 51.1372 98.2338 50.1241 98.2338ZM49.0427 80.6108V80.4647L51.9945 76.5192H54.5663V76.6654L50.7962 80.6108H49.0427ZM67.4148 98.2338C66.3432 98.2338 65.447 98.1169 64.7261 97.8831C64.0247 97.6493 63.4694 97.2499 63.0602 96.6849C62.6511 96.1003 62.3588 95.3113 62.1835 94.3176C62.0081 93.3239 61.9204 92.077 61.9204 90.5767C61.9204 89.057 61.9984 87.8003 62.1542 86.8066C62.3296 85.7935 62.6219 85.0044 63.031 84.4394C63.4402 83.8743 63.9955 83.4749 64.6969 83.2411C65.3983 82.9878 66.2848 82.8612 67.3564 82.8612C68.1552 82.8612 68.8664 82.9294 69.4899 83.0658C70.1133 83.1827 70.6491 83.397 71.0973 83.7087C71.5649 84.0205 71.9351 84.4491 72.2078 84.9946H72.354V76.2854H74.7504V98H72.617L72.5001 95.8665H72.3247C72.052 96.5485 71.6525 97.0648 71.1265 97.4155C70.6199 97.7467 70.0451 97.961 69.4022 98.0585C68.7592 98.1754 68.0968 98.2338 67.4148 98.2338ZM68.3501 96.1296C69.3437 96.1296 70.1328 95.9932 70.7173 95.7204C71.3018 95.4476 71.711 95.019 71.9448 94.4345C72.1396 93.8889 72.2565 93.2947 72.2955 92.6517C72.3345 92.0088 72.354 91.2489 72.354 90.3721C72.354 89.6512 72.3345 88.9985 72.2955 88.414C72.2565 87.81 72.1494 87.284 71.974 86.8358C71.7207 86.1734 71.3018 85.7058 70.7173 85.433C70.1328 85.1408 69.3242 84.9946 68.2916 84.9946C67.4148 84.9946 66.7134 85.0531 66.1874 85.17C65.6613 85.2869 65.2619 85.5402 64.9891 85.9299C64.7164 86.3 64.5313 86.8553 64.4338 87.5957C64.3364 88.3166 64.2877 89.3005 64.2877 90.5475C64.2877 91.7944 64.3364 92.7881 64.4338 93.5285C64.5313 94.2689 64.7164 94.8242 64.9891 95.1943C65.2619 95.5645 65.6613 95.8178 66.1874 95.9542C66.7329 96.0711 67.4538 96.1296 68.3501 96.1296ZM79.7142 78.8865V76.2854H82.2568V78.8865H79.7142ZM79.7727 98V83.095H82.1692V98H79.7727ZM93.0968 98.2338C91.8693 98.2338 90.8464 98.1559 90.0281 98C89.2293 97.8636 88.596 97.6298 88.1284 97.2986C87.6608 96.9674 87.3101 96.5095 87.0763 95.925C86.862 95.3405 86.7256 94.6098 86.6672 93.7331C86.6087 92.8368 86.5795 91.775 86.5795 90.5475C86.5795 89.32 86.6087 88.2679 86.6672 87.3911C86.7256 86.4949 86.862 85.7545 87.0763 85.17C87.3101 84.5855 87.6608 84.1276 88.1284 83.7964C88.596 83.4652 89.2293 83.2314 90.0281 83.095C90.8464 82.9391 91.8693 82.8612 93.0968 82.8612C94.3437 82.8612 95.3666 82.9391 96.1655 83.095C96.9643 83.2314 97.5975 83.4652 98.0651 83.7964C98.5522 84.1276 98.9029 84.5855 99.1172 85.17C99.351 85.7545 99.4972 86.4949 99.5556 87.3911C99.6141 88.2679 99.6433 89.32 99.6433 90.5475C99.6433 91.775 99.6141 92.8368 99.5556 93.7331C99.4972 94.6098 99.351 95.3405 99.1172 95.925C98.9029 96.5095 98.5522 96.9674 98.0651 97.2986C97.5975 97.6298 96.9643 97.8636 96.1655 98C95.3666 98.1559 94.3437 98.2338 93.0968 98.2338ZM93.0968 96.2172C94.1489 96.2172 94.9575 96.149 95.5225 96.0127C96.0875 95.8763 96.4869 95.6132 96.7207 95.2236C96.974 94.8339 97.1202 94.2689 97.1591 93.5285C97.2176 92.7686 97.2468 91.775 97.2468 90.5475C97.2468 89.32 97.2176 88.3361 97.1591 87.5957C97.1202 86.8358 96.974 86.2611 96.7207 85.8714C96.4869 85.4817 96.0875 85.2187 95.5225 85.0823C94.9575 84.9459 94.1489 84.8777 93.0968 84.8777C92.0641 84.8777 91.2556 84.9459 90.6711 85.0823C90.106 85.2187 89.7066 85.4817 89.4728 85.8714C89.239 86.2611 89.0929 86.8358 89.0344 87.5957C88.976 88.3361 88.9468 89.32 88.9468 90.5475C88.9468 91.775 88.976 92.7686 89.0344 93.5285C89.0929 94.2689 89.239 94.8339 89.4728 95.2236C89.7066 95.6132 90.106 95.8763 90.6711 96.0127C91.2556 96.149 92.0641 96.2172 93.0968 96.2172ZM111.348 98V77.8928H117.719C119.375 77.8928 120.73 77.9708 121.782 78.1266C122.834 78.2825 123.662 78.565 124.266 78.9742C124.889 79.3833 125.347 79.9678 125.639 80.7277C125.932 81.4876 126.117 82.452 126.195 83.621C126.273 84.7901 126.312 86.2319 126.312 87.9464C126.312 89.661 126.273 91.1028 126.195 92.2718C126.117 93.4408 125.932 94.4053 125.639 95.1651C125.347 95.925 124.889 96.5095 124.266 96.9187C123.662 97.3278 122.834 97.6103 121.782 97.7662C120.73 97.9221 119.375 98 117.719 98H111.348ZM113.862 95.8373H117.31C118.538 95.8373 119.551 95.8081 120.35 95.7496C121.148 95.6912 121.782 95.5451 122.249 95.3113C122.717 95.058 123.058 94.6585 123.272 94.113C123.486 93.548 123.623 92.7686 123.681 91.775C123.759 90.7813 123.798 89.5051 123.798 87.9464C123.798 86.3877 123.759 85.1213 123.681 84.1471C123.623 83.1534 123.477 82.3741 123.243 81.8091C123.029 81.244 122.688 80.8446 122.22 80.6108C121.752 80.3575 121.119 80.2017 120.32 80.1432C119.541 80.0848 118.538 80.0555 117.31 80.0555H113.862V95.8373ZM131.03 78.8865V76.2854H133.573V78.8865H131.03ZM131.089 98V83.095H133.485V98H131.089ZM143.974 104.02C143.351 104.02 142.708 104.001 142.045 103.962C141.402 103.943 140.789 103.913 140.204 103.874C139.62 103.835 139.123 103.796 138.714 103.757V101.829C139.181 101.868 139.698 101.897 140.263 101.916C140.828 101.955 141.383 101.975 141.929 101.975C142.494 101.994 143 102.004 143.448 102.004C144.578 102.004 145.465 101.926 146.108 101.77C146.751 101.614 147.238 101.341 147.569 100.952C147.9 100.562 148.105 100.017 148.183 99.3151C148.28 98.6137 148.329 97.7175 148.329 96.6264V96.0127H148.183C147.93 96.5582 147.579 96.9868 147.131 97.2986C146.683 97.6103 146.147 97.8344 145.523 97.9708C144.9 98.0877 144.189 98.1461 143.39 98.1461C142.299 98.1461 141.393 98.0292 140.672 97.7954C139.97 97.5616 139.415 97.1719 139.006 96.6264C138.597 96.0614 138.305 95.282 138.129 94.2884C137.973 93.2947 137.895 92.0477 137.895 90.5475C137.895 89.0278 137.983 87.7711 138.158 86.7774C138.334 85.7837 138.626 85.0044 139.035 84.4394C139.444 83.8743 140 83.4749 140.701 83.2411C141.422 82.9878 142.328 82.8612 143.419 82.8612C144.081 82.8612 144.734 82.9196 145.377 83.0365C146.02 83.1339 146.595 83.358 147.101 83.7087C147.628 84.0594 148.027 84.566 148.3 85.2284H148.475L148.592 83.095H150.725V96.0711C150.725 97.5129 150.647 98.7404 150.492 99.7535C150.355 100.767 150.063 101.585 149.615 102.208C149.167 102.832 148.495 103.29 147.598 103.582C146.702 103.874 145.494 104.02 143.974 104.02ZM144.325 96.0711C145.299 96.0711 146.069 95.9445 146.634 95.6912C147.199 95.4184 147.608 94.9995 147.861 94.4345C148.076 93.9669 148.202 93.4116 148.241 92.7686C148.3 92.1257 148.329 91.3755 148.329 90.5183C148.329 89.7 148.309 88.9791 148.27 88.3556C148.231 87.7126 148.105 87.1671 147.891 86.7189C147.637 86.0955 147.218 85.6473 146.634 85.3746C146.049 85.1018 145.28 84.9654 144.325 84.9654C143.429 84.9654 142.708 85.0336 142.162 85.17C141.636 85.2869 141.237 85.5304 140.964 85.9006C140.691 86.2708 140.506 86.8261 140.409 87.5665C140.311 88.3069 140.263 89.2908 140.263 90.5183C140.263 91.7457 140.311 92.7297 140.409 93.47C140.506 94.2104 140.691 94.7657 140.964 95.1359C141.237 95.5061 141.636 95.7594 142.162 95.8958C142.708 96.0127 143.429 96.0711 144.325 96.0711ZM155.689 78.8865V76.2854H158.232V78.8865H155.689ZM155.748 98V83.095H158.144V98H155.748ZM164.425 98V85.1115H161.415V83.095H164.425V78.7696H166.792V83.095H170.358V85.1115H166.792V98H164.425ZM177.361 98.2338C176.27 98.2338 175.354 98.1072 174.614 97.8539C173.893 97.6006 173.347 97.1622 172.977 96.5387C172.627 95.9152 172.451 95.0385 172.451 93.9084C172.451 92.7784 172.578 91.8919 172.831 91.2489C173.104 90.5865 173.571 90.1188 174.234 89.8461C174.896 89.5733 175.822 89.4369 177.01 89.4369C177.205 89.4369 177.507 89.4467 177.916 89.4661C178.345 89.4661 178.832 89.4759 179.378 89.4954C179.923 89.4954 180.469 89.5051 181.014 89.5246C181.579 89.5246 182.096 89.5343 182.563 89.5538V88.6186C182.563 87.7418 182.505 87.0599 182.388 86.5728C182.29 86.0662 182.076 85.6961 181.745 85.4622C181.414 85.209 180.946 85.0531 180.342 84.9946C179.758 84.9167 178.978 84.8777 178.004 84.8777C177.575 84.8777 177.069 84.8972 176.484 84.9362C175.9 84.9557 175.325 84.9946 174.76 85.0531C174.214 85.0921 173.776 85.1408 173.445 85.1992V83.2703C174.185 83.1339 175.013 83.0365 175.929 82.9781C176.864 82.9001 177.829 82.8612 178.822 82.8612C179.874 82.8612 180.761 82.9294 181.482 83.0658C182.222 83.1827 182.816 83.3775 183.265 83.6503C183.732 83.923 184.083 84.2835 184.317 84.7316C184.551 85.1797 184.706 85.7253 184.784 86.3682C184.882 87.0112 184.93 87.7613 184.93 88.6186V98H182.797L182.709 95.8958H182.534C182.222 96.5777 181.774 97.094 181.19 97.4447C180.625 97.7759 180.001 97.9903 179.319 98.0877C178.637 98.1851 177.985 98.2338 177.361 98.2338ZM178.238 96.2757C178.803 96.2757 179.329 96.2465 179.816 96.188C180.303 96.1101 180.732 95.9737 181.102 95.7789C181.472 95.584 181.764 95.2918 181.979 94.9021C182.193 94.4929 182.339 94.0546 182.417 93.5869C182.514 93.0999 182.563 92.5348 182.563 91.8919V91.132H177.595C176.835 91.132 176.25 91.1905 175.841 91.3074C175.432 91.4243 175.15 91.6678 174.994 92.038C174.857 92.4082 174.789 92.9635 174.789 93.7038C174.789 94.4247 174.877 94.9703 175.052 95.3405C175.228 95.7107 175.559 95.964 176.046 96.1003C176.552 96.2172 177.283 96.2757 178.238 96.2757ZM189.996 98V76.2854H192.393V98H189.996Z" fill="white"/>
</svg>
